PathFileType	3	(X/Y/Z)	results
DataRate	CameraRate	NumFrames	NumMarkers	Units	OrigDataRate	OrigDataStartFrame	OrigNumFrames
30.0	30.0	4	85	mm	30.0	59	233
Frame#	Time	head			nose			neck			shoulder_r			elbow_r			wrist_r			shoulder_l			elbow_l			wrist_l			hip_r			knee_r			ankle_r			hip_l			knee_l			ankle_l			heel_r			heel_l			mtoe_r			ltoe_r			mtoe_l			ltoe_l			asis_l			asis_r			psi_r			psi_l			mhnd_r			lhnd_r			mhnd_l			lhnd_l			l_lat_knee			r_med_wrist			l_lat_ankle			r_med_ankle			r_lat_knee			xiphoid			l_med_ankle			r_med_knee			l_med_elbow			navel			r_lat_elbow			r_lat_wrist			l_med_wrist			l_lat_elbow			l_med_knee			r_med_elbow			r_lat_ankle			l_lat_wrist			chin			T10			r_eye			l_eye			l_ear			r_ear			spinal_cord_8			spinal_cord_12			spinal_cord_27			spinal_cord_33			up_arm_r_0			up_arm_r_5			up_arm_l_0			up_arm_l_5			front_torso_11			front_torso_7			front_torso_4			front_torso_1			front_torso_10			thigh_r_2			thigh_r_3			thigh_l_1			thigh_l_5			shank_l_0			shank_l_4			shank_r_1			shank_r_2			foot_r_1			foot_r_3			foot_r_5			foot_r_6			foot_r_7			foot_l_1			foot_l_7			foot_l_0			foot_l_4			foot_l_5			foot_l_6			
		X1	Y1	Z1	X2	Y2	Z2	X3	Y3	Z3	X4	Y4	Z4	X5	Y5	Z5	X6	Y6	Z6	X7	Y7	Z7	X8	Y8	Z8	X9	Y9	Z9	X10	Y10	Z10	X11	Y11	Z11	X12	Y12	Z12	X13	Y13	Z13	X14	Y14	Z14	X15	Y15	Z15	X16	Y16	Z16	X17	Y17	Z17	X18	Y18	Z18	X19	Y19	Z19	X20	Y20	Z20	X21	Y21	Z21	X22	Y22	Z22	X23	Y23	Z23	X24	Y24	Z24	X25	Y25	Z25	X26	Y26	Z26	X27	Y27	Z27	X28	Y28	Z28	X29	Y29	Z29	X30	Y30	Z30	X31	Y31	Z31	X32	Y32	Z32	X33	Y33	Z33	X34	Y34	Z34	X35	Y35	Z35	X36	Y36	Z36	X37	Y37	Z37	X38	Y38	Z38	X39	Y39	Z39	X40	Y40	Z40	X41	Y41	Z41	X42	Y42	Z42	X43	Y43	Z43	X44	Y44	Z44	X45	Y45	Z45	X46	Y46	Z46	X47	Y47	Z47	X48	Y48	Z48	X49	Y49	Z49	X50	Y50	Z50	X51	Y51	Z51	X52	Y52	Z52	X53	Y53	Z53	X54	Y54	Z54	X55	Y55	Z55	X56	Y56	Z56	X57	Y57	Z57	X58	Y58	Z58	X59	Y59	Z59	X60	Y60	Z60	X61	Y61	Z61	X62	Y62	Z62	X63	Y63	Z63	X64	Y64	Z64	X65	Y65	Z65	X66	Y66	Z66	X67	Y67	Z67	X68	Y68	Z68	X69	Y69	Z69	X70	Y70	Z70	X71	Y71	Z71	X72	Y72	Z72	X73	Y73	Z73	X74	Y74	Z74	X75	Y75	Z75	X76	Y76	Z76	X77	Y77	Z77	X78	Y78	Z78	X79	Y79	Z79	X80	Y80	Z80	X81	Y81	Z81	X82	Y82	Z82	X83	Y83	Z83	X84	Y84	Z84	X85	Y85	Z85	
59	1.9666666666666666	-1963.7154767169893	1897.9554685251542	-647.2300706018872	-2080.0765506670873	1679.0960772503915	-709.303118213425	-1917.4861679610563	1508.104982586181	-596.5043823528982	-1898.5240347451602	1467.0671696927795	-829.7101024712563	-1867.9869654165088	1173.8733630225295	-900.2083112513781	-1949.1223816386141	919.575237792101	-951.1728851191817	-1940.949674977461	1473.7105841778077	-398.95719525373295	-1969.1867824817357	1196.9276068340207	-273.32885910267515	-2081.9186372060462	947.0419022188917	-269.30354364198945	-1940.0125932697972	921.8774355120312	-677.1649433428688	-1951.7848716580636	531.6847548177963	-678.5257567165954	-1914.6918365085328	113.20326259458369	-690.902045241952	-1950.3518420753917	921.4330078366346	-443.33124165270016	-2085.1240743575445	544.3501625807514	-475.3182829900528	-1791.3928012554745	245.7656582456752	-459.13145030478205	-1899.7242179479344	55.437702762654965	-682.0346137633638	-1731.8642344833818	208.0865987042361	-448.77305132938767	-2115.8182072309623	33.30001597102918	-765.7594929043862	-2032.9239279528815	34.63807803156553	-806.1594555607172	-1918.1196153844862	73.50378576702754	-508.1992715362518	-1879.3211244360525	87.49943266308493	-414.18448105708393	-2008.2833019142815	996.9309442768653	-393.694548732512	-1988.774830478467	993.963385062174	-735.8899635706949	-1817.5617108925169	1016.4154384930033	-612.9069134351304	-1830.2419138261344	1015.798773296815	-496.6048404876413	-1941.8534067646785	851.1992840341829	-976.7380709475688	-1993.1807836193227	845.5252579413308	-962.5131608295612	-2099.9287197641115	878.7513800535125	-240.55187744015515	-2124.8212730602204	871.9968166446415	-287.3544840690959	-2089.355008125656	546.2212243142678	-426.5301706894028	-1921.3568750290906	925.7468824049394	-970.1444088513259	-1789.191247600629	228.25498113215764	-402.4034375319548	-1938.337678834192	99.89655423431194	-659.5423620427098	-1943.2997182022254	522.4030263695523	-720.5883254015986	-2029.182520151446	1315.967057748732	-607.5584531214259	-1785.8827798776	231.95510589536627	-493.9777590847084	-1968.627258371904	526.9818501061519	-639.8139126160705	-1927.7289466507639	1201.9449674502991	-277.5830885125339	-2053.145395098222	1066.0716682428128	-593.0681122634816	-1896.0845848628085	1187.0397943347841	-934.6272827633876	-1969.9643428315997	929.4731433731871	-921.3542059681969	-2077.793044774912	958.5854234628952	-233.18363395541502	-2009.3322564988441	1218.8139860044998	-265.1056361496583	-2086.6736018573943	558.5562632502176	-522.3900586705087	-1842.766977220039	1175.4368914412462	-865.7652858095122	-1901.6855442817846	96.03105413274248	-741.2917284383725	-2090.314598791489	959.9854524903249	-302.6189009163035	-2057.742843660177	1590.1860387444851	-688.8659244434434	-1808.8399110714806	1325.367767532463	-566.5628035297317	-2058.485409544805	1714.7386820502263	-744.9175706170377	-2105.0929839686964	1718.784962760491	-676.4179707821038	-2039.1113777117057	1724.846517055774	-555.635584627093	-1920.8405501186728	1711.311917731422	-723.4961910272006	-1860.7316609249622	1574.9120084901901	-589.7643620886987	-1806.4176284466162	1440.0107241317883	-570.1364152273383	-1828.5291081973903	1151.3857404320338	-574.9625377352344	-1823.8048024685424	1314.593612767493	-568.5753703714173	-1933.883550400321	1313.25133310892	-848.9356740487111	-1847.4931349449928	1302.9204581056333	-902.897566429582	-1976.91891246592	1426.7595924328161	-360.88090437327173	-1914.4423609285818	1275.0087554242625	-295.7111862919863	-1996.5564441602876	1093.3133739207583	-646.305381023145	-2066.014300042097	1217.0220164641175	-609.7546439660248	-2049.4572433579615	1372.9956281165255	-531.6193751049223	-2027.8554937616063	1141.2569685096807	-503.5097132345534	-2023.2961972758314	1408.6490756341718	-715.1323184868885	-1953.5556304422635	710.2265041746889	-661.3854056005342	-1927.0179689802321	673.7516406706623	-753.5700268167781	-2031.4799296024862	658.6893320355944	-512.3013033956704	-2021.302768737535	824.6961483312527	-356.38616875927477	-1884.8192505712457	299.5653194162899	-395.4182577325627	-1964.1184599147625	433.53613922824974	-520.8167833351985	-1916.0100135826092	355.826217355509	-743.8499491189798	-1950.272872592195	310.5162552914038	-645.1002120561367	-2089.1192432920247	27.728751197118342	-781.2080828433963	-2063.9906236393977	31.42696057994182	-797.9643079541529	-2042.166243265575	49.072976213268696	-722.3022645288494	-2015.7582746454027	58.057062915371915	-752.5309308078429	-1991.433079925026	45.96110680886734	-777.8291722214818	-1898.7705103148846	73.24844323100058	-451.67941361653624	-1832.8194872499573	159.96579904936587	-411.111636521907	-1895.1328605410552	76.45262438472473	-434.7167383663991	-1902.6816679873732	69.6702445583994	-472.37546046680205	-1864.7841539562032	117.28690264918872	-453.1091060140096	-1841.134322279622	148.2861960145065	-478.334906499415	
60	2.0	-1999.742558347621	1899.892924025517	-652.0004370907201	-2123.510258368958	1684.3099940243917	-711.1439290684735	-1955.7104481631409	1513.084512534817	-598.6145079277995	-1925.8108984013668	1470.7472043991556	-832.0909419399698	-1925.159836658209	1179.77502494548	-916.9430793129617	-2050.2704148424023	940.6832984758677	-949.0424501941607	-1980.5915932220496	1478.889446170907	-398.845608548969	-1988.779542719135	1198.957016948838	-277.3572462073552	-2085.088334798119	942.9375932659148	-258.75050359905526	-1979.5636940015293	924.7606001438828	-679.0683084972536	-1960.5885537642405	535.1058273976026	-677.7430534043252	-1920.1817872038578	117.01521707725627	-692.6882829351513	-1991.5330235323077	930.5171690477014	-445.3828474754162	-2137.4760311956857	561.7549538034597	-490.009541260317	-1917.1714105544975	206.36962925765283	-460.68504976974344	-1905.2545588914986	59.280189729656946	-683.8932433799323	-1868.449169154824	155.17253983386007	-447.2733472865457	-2119.605385576688	36.005987567392154	-771.6917592045301	-2035.8265049447905	35.436613196963606	-810.2428149959846	-2074.151954504611	74.81404123508304	-534.2443303962674	-2041.0535428448911	68.05555332407923	-437.2969227593578	-2048.060387636471	1008.5555920820997	-398.11282137440054	-2026.2506880639587	996.415900539527	-739.9666698177649	-1855.425221906942	1018.0961285829846	-616.3079238008252	-1868.9230899049817	1020.7354217052607	-500.12624845739083	-2056.800735803746	871.5812479272303	-972.7900667604229	-2106.3221982709388	874.3589772788492	-952.5675241530736	-2096.929153736721	874.6691720609173	-226.90973611787678	-2124.2291919272743	864.8593849709533	-271.7898354465478	-2147.1792121685594	561.5303784997693	-442.0585406768112	-2024.3435974496115	942.0454753800964	-971.288256117805	-1921.236968532044	189.42045048446278	-403.88949834299234	-1945.3932072011685	103.21707090484911	-662.794813063686	-1946.489572376283	526.2261536531784	-718.4713070955673	-2066.5628687135177	1320.6612955422884	-612.7671103176433	-1913.3619324022436	191.3096633876014	-495.2399659408415	-1982.3661756523463	528.8406732821353	-641.7054989308241	-1947.8878001028302	1206.114545509531	-283.5749385379582	-2089.8778136588603	1070.586685868045	-600.478986429931	-1955.0864435641056	1196.6530248270067	-948.0401539517933	-2065.6210227490055	954.2790272722499	-917.4034789251017	-2079.4436016349796	955.9044071917884	-223.3256536274095	-2029.482913811854	1218.6642917572317	-266.7199075222233	-2136.07714129454	573.9072414925188	-537.3056851675727	-1896.9145365462225	1177.784517483593	-884.9578432037314	-1904.3742123148697	100.48936324338847	-742.4897415962267	-2096.351972153276	954.2317137099199	-291.81882698891525	-2103.7507675353845	1594.9043856420326	-690.2234124218365	-1846.8971172749452	1330.4948589383544	-568.3808435010682	-2101.187322037642	1718.9855807507936	-747.2583592954132	-2146.9348890966007	1725.0130130589796	-678.3260466491137	-2079.550384655556	1729.9345704472341	-558.2685335808583	-1963.5021233444281	1711.4200729073996	-727.2015725250953	-1899.295187279552	1580.0291964601345	-590.5269690075393	-1844.817398043038	1445.1686015210644	-571.0740166305967	-1865.8561397163317	1156.514958250351	-578.3565839156961	-1861.7926489387175	1319.6859244553996	-570.6983599550312	-1974.8897934796166	1321.1367561218535	-854.1636707699723	-1894.7739453665972	1306.8838708488092	-916.2943623219539	-2012.2310002368838	1429.5601700830882	-359.9411609503415	-1939.14517203224	1280.0476705680935	-300.92249963031077	-2032.5872004750902	1098.411095233781	-652.6538325338145	-2103.0152323123752	1221.6126219909827	-616.2470405952417	-2088.177027050749	1377.0576493977514	-536.7253767730016	-2066.200852005406	1145.190654822157	-509.998244691071	-2059.375810332966	1414.156809331149	-719.5551098268164	-1978.742370889222	712.698997645034	-663.0144436309239	-1937.7379616317048	678.3764096890154	-750.6116234356216	-2077.7225008930923	671.5836599975672	-522.1792475169157	-2073.4413896466795	836.7351403805701	-365.0868305058601	-1999.1427985981654	279.9846693332004	-401.1552815991885	-2041.8632837768946	426.67714453060233	-530.0646034245086	-1920.2179461473916	360.20845773066037	-742.9691210916291	-1959.447694895779	313.5867943459598	-646.7096069845854	-2092.6151075194225	29.74480448384376	-786.3496947509555	-2067.092040009796	32.7170153371867	-802.6479874771974	-2046.813464359265	52.644769762073956	-727.1225332588182	-2019.6702619238026	60.454609188855535	-757.0243702458173	-1994.8862463983248	47.3706480762127	-781.3675583478968	-2060.0176455358855	63.281449133274116	-477.3570028490897	-1980.2246726019305	127.09712036572613	-421.8968968507067	-2057.166627683338	63.48397268262304	-459.9483180681836	-2062.911122197881	63.23424727666015	-498.5242553892586	-2017.2134479735328	98.25827951357786	-470.95978826705294	-1985.3680467420768	125.88878783053111	-490.42866517774047	
61	2.033333333333333	-2038.1583345669721	1899.3624350198295	-656.8636808298093	-2164.011810641057	1684.403399218625	-713.8365814690667	-1994.1563613139988	1514.012892872151	-599.0131606425405	-1958.5963818742794	1471.3338289388616	-839.799752173257	-1975.8829306437844	1181.6167874164557	-927.1515088660942	-2130.2339154915376	960.2422904076801	-959.0417205526304	-2018.8932387517712	1480.6218152778904	-398.8656977890082	-2010.774880210156	1199.5973081748352	-279.92054953294337	-2087.751033277286	938.7769840226024	-245.06413013492323	-2018.351231708894	924.2563338505316	-682.543998371284	-1966.8703848708005	537.9694446055943	-674.3137389973058	-1922.6905607254978	120.29842119098517	-690.2788398713142	-2032.4880789368556	935.7012912046001	-449.18920384251015	-2172.954153171193	569.6286270369094	-503.6376158375099	-2050.1163427229785	170.37216364229042	-469.0264999716967	-1907.7370903181559	62.71265948295596	-681.3767274524677	-2015.8109078350578	109.02589685324631	-454.55966900232465	-2120.7735090058213	37.167237952432295	-771.70645965332	-2036.3488145355343	33.78704766432847	-808.6720410359816	-2230.331076386338	79.87682879295457	-551.8556361167364	-2203.1530379887945	60.19945068546946	-454.82916096467625	-2087.200119995414	1016.3940723714758	-404.29976899852414	-2062.3294116236166	995.8118299679265	-745.5400186240005	-1892.1941151593358	1015.3959984984906	-620.5868318609647	-1906.7725161821202	1021.0805337339581	-504.64505217365553	-2144.717517327022	891.7185856180434	-980.8686519502567	-2194.46993956054	901.8994599927781	-963.8366663463975	-2093.921344284353	871.7247888147049	-209.27939623025037	-2121.354462116143	857.487016841307	-252.8736300114295	-2190.273714294389	567.7073331442533	-457.68501207043727	-2103.14424048558	957.2256906641946	-979.6810253202143	-2057.2251949601696	156.13198263944244	-411.78822999872335	-1949.557700835362	106.07510413711152	-662.0746183551296	-1949.7838699607728	529.569028160845	-714.1137067923438	-2103.634410818145	1321.1108139273874	-616.8623720982969	-2050.976229716638	154.170511805303	-503.2627964931139	-1990.6693242208094	529.8361757525889	-639.848883754656	-1970.3902989360072	1209.01870579333	-286.42803671612006	-2125.4856335924574	1070.754455318464	-608.1381060800752	-2001.6481545126626	1201.0856167048935	-960.3872525333898	-2145.3660302219027	977.0427811853859	-928.8710042703366	-2082.336467246936	954.0773238100477	-210.54597044358698	-2052.386839848701	1216.9713069901222	-268.74544088945305	-2169.1195953534634	578.7665339368261	-551.379508058941	-1950.5904644257585	1177.1222231438537	-893.020811950492	-1903.7978820260357	104.31203344968581	-739.1733247558476	-2100.488988982431	947.3661954705542	-278.40945403565433	-2145.324020300399	1595.0615404834593	-691.6946060623117	-1884.500794606673	1331.7154331490522	-570.0875679480278	-2141.15101151596	1718.3719524742207	-750.2849439147578	-2187.135491481578	1725.7729415092965	-681.6446749583698	-2120.2348142897567	1731.4881807172758	-561.3519692688863	-2003.6471440775263	1709.565231850805	-729.5038550356113	-1938.2528874325135	1581.1928260896273	-589.456025450008	-1883.121728215169	1446.4256142902743	-571.2356837743467	-1902.2518965194818	1157.769767524443	-582.5683356909674	-1899.3029303393282	1320.846071759009	-572.7018692776983	-2018.2998479955777	1326.5443642235307	-867.199324695303	-1934.9274681346633	1305.6503633410514	-922.8266893070906	-2047.4521814978423	1429.3065488048626	-360.14728079422815	-1965.8284035033987	1283.4675067446467	-303.16253848138797	-2067.8423948701425	1099.6281575638939	-659.3454593580258	-2139.419719673558	1221.8928802301018	-622.0332290792135	-2126.3824864668136	1376.35180256981	-540.3050469270106	-2103.2090865792684	1144.289709010993	-516.4351222681836	-2095.949675000747	1416.066218146141	-722.319272256843	-2000.9575053547355	713.1582001825017	-663.4767319554558	-1951.6338026321794	681.6312174531047	-747.773168665499	-2111.9790199326576	676.2900409086052	-531.4076245008139	-2123.0661789151377	843.4633351369179	-376.80642311114764	-2109.361347950915	263.6382758060246	-410.08807821666846	-2115.817908771412	413.8450166963387	-541.8362592302659	-1921.4147878772305	363.9162967111867	-738.4433436407385	-1966.0377654010888	316.19988908549624	-645.1139213777338	-2093.603255249347	29.89471114156565	-785.5419308159288	-2067.769658117261	31.774415510614133	-801.5102534877072	-2048.5880410503637	55.317008770486204	-726.7423316828011	-2020.8449858276656	61.318504653951784	-756.5109698712159	-1995.787426896787	46.76140728489689	-779.7109252063216	-2221.1429069722285	62.077619203837045	-495.5731958099206	-2131.8840192868556	103.86202808853459	-433.9120579257916	-2218.984691845192	60.583325665065274	-478.1278291279057	-2223.1653568617653	63.96663066326926	-516.7573490254379	-2172.2062453715844	86.67283185166053	-485.7354616698608	-2134.5279195037942	108.04943454983461	-502.46855326986605	
62	2.0666666666666664	-2082.9175150361725	1898.1171008746905	-656.2511336093794	-2199.160825176961	1679.1823462061066	-718.2790464026015	-2031.5860622116766	1511.612430986141	-599.1862517533281	-2000.8570002965569	1469.4618065951663	-841.5655262155549	-2022.791543805364	1181.8448533840656	-934.6272387551605	-2195.3426747717335	974.9736772633338	-970.3806126298571	-2055.5257712394778	1477.864897569685	-399.47847726797687	-2034.612918638624	1197.339256326553	-280.91774670002195	-2096.46314572187	934.6543099261453	-232.55755698258378	-2051.182356362877	919.661980096702	-688.1269807220054	-1971.9976125699175	538.6313714732809	-671.4513641657163	-1920.1130548990998	121.75242773675853	-684.7089677221318	-2071.0447802003837	933.2296254299433	-455.3036555431048	-2197.947077793961	564.6968739548262	-507.22773309226585	-2178.9183191786856	146.41907906324852	-487.8790063701299	-1904.4242570188967	64.43228215028411	-675.4221471978203	-2159.601229807712	79.18042138186127	-476.27882818403185	-2117.7198646231027	35.451544222634006	-764.0880672225836	-2033.3591461206888	29.535846322445533	-800.8804933705491	-2381.5264730897698	96.57155644213667	-558.6305793268988	-2352.6540486829167	73.67851678095217	-462.80639811621165	-2127.9310871111174	1013.5826109783638	-412.55860285435307	-2094.6357933463455	989.9563444690305	-752.8824364976615	-1927.821552255528	1013.1919191524221	-624.134719311345	-1945.2417805967812	1019.8241138002684	-508.6362793522847	-2215.0182034815766	907.5424326109045	-991.5369022165305	-2264.429692416735	922.7303971266732	-977.5057672009706	-2098.3045918422104	869.1263079285461	-193.60493407810264	-2125.658537543768	851.3812863956775	-235.9443151442178	-2220.4404653307042	561.732331558508	-462.9671118252941	-2167.596227622426	968.9232034992191	-989.4189346423252	-2188.4527288398394	132.37779518098085	-430.94504933240114	-1947.7886607088415	107.1201724455324	-657.5137103196308	-1953.2491480386198	530.5895619769634	-710.6644833620395	-2140.631717605257	1318.9008214853188	-621.2436844557893	-2184.378791241133	132.1868403482561	-522.5630596714084	-1996.3384678463824	529.0177189248437	-637.6727337828695	-1994.7210980452062	1208.4113999663684	-287.85134693187564	-2162.4050395922554	1068.436222878871	-616.213540842459	-2045.0338964662126	1202.7846423341248	-969.4740423220784	-2210.413715925088	993.8838886859587	-941.4535123590571	-2091.306227917341	951.8353594017832	-198.8954267906618	-2076.778202716488	1212.9869622334506	-269.2759173132131	-2195.178620617536	571.285510050134	-555.8058819123218	-2000.4889916796603	1175.8734392755334	-898.6862759194221	-1899.1003816440186	106.00589602904542	-732.8097250491563	-2110.22948037105	940.9583580268251	-266.00434610739586	-2177.6453091078115	1590.3818621902954	-696.5299105158614	-1922.2202695331373	1329.0095152326098	-571.1025270318454	-2176.734998699619	1714.3589082744036	-753.8410156921686	-2224.5941540821937	1719.3207239267413	-686.2709395466612	-2160.852239800442	1726.304645232088	-564.3410711102365	-2039.5327172827008	1710.5077729337409	-729.8112784017018	-1975.8843698552632	1578.6919883817138	-587.9019661996773	-1920.9179631353115	1443.7255826886626	-570.685973338584	-1939.6435856322194	1155.2368516854624	-586.1841460431392	-1936.9733841010502	1318.167230621696	-574.0809973908745	-2063.9710027249967	1327.6260073166734	-875.8942062707788	-1977.3543889531193	1304.013667528335	-925.1073784771695	-2081.5372686338587	1425.399733350919	-360.5067677166505	-1993.3946450191552	1282.9944224298413	-304.55738431185796	-2104.036648092467	1098.0326882800057	-666.1715911544482	-2176.255983493005	1219.739496455624	-628.2770163310583	-2164.5510895851075	1373.0914217821025	-544.2936468154114	-2141.5429170380976	1140.7431624988362	-523.2103492424418	-2131.4704321245085	1415.2729827932249	-725.2879977033801	-2019.1414755176745	710.7145207858969	-664.8275042170709	-1965.063009134485	681.5745819726451	-747.040951851234	-2141.108007269436	670.4495610959102	-535.3702351962097	-2162.9278949168825	840.5491624155501	-385.16575789100654	-2211.843185582027	249.3916018150446	-424.67387515419927	-2182.449203492864	401.03281710767436	-551.5685993488114	-1921.1644125436853	365.2704593353354	-733.3811284112707	-1968.4901718612123	316.9609375514391	-641.7028357255273	-2090.612346620411	27.267748118835303	-777.5320453080524	-2064.784537341067	28.116626923435465	-793.5975061123024	-2045.369475185805	55.52418685586693	-720.2196396825477	-2017.6206048472216	59.73347691743533	-750.2887094658273	-1992.6830930161152	43.7855223647769	-772.6898594407121	-2372.5939787664374	78.54899552651732	-502.37806605614423	-2272.1702134767215	100.72133574133255	-448.1688742500145	-2369.601368528022	77.03638351053148	-485.0579068988338	-2375.629585662296	80.32397346323583	-523.4508342512828	-2318.845740863686	91.7605682480341	-496.62623022821816	-2278.6287871557806	103.713442944079	-516.534448595666	
